<mxfile host="Electron" modified="2023-05-28T13:59:30.688Z" agent="Mozilla/5.0 (Windows NT 10.0; Win64; x64) AppleWebKit/537.36 (KHTML, like Gecko) draw.io/21.2.8 Chrome/112.0.5615.165 Electron/24.2.0 Safari/537.36" etag="30rVhiEtFYKd8kHuSbF4" version="21.2.8" type="device">
  <diagram name="第 1 页" id="1D3koXgxp4qXRl4sMXFp">
    <mxGraphModel dx="840" dy="281" grid="0" gridSize="10" guides="1" tooltips="1" connect="1" arrows="1" fold="1" page="0" pageScale="1" pageWidth="827" pageHeight="1169" math="0" shadow="0">
      <root>
        <mxCell id="0" />
        <mxCell id="1" parent="0" />
        <mxCell id="wY0hnKDGdVHcxSXuLAbP-3" value="" style="rounded=0;whiteSpace=wrap;html=1;shadow=1;" vertex="1" parent="1">
          <mxGeometry x="27" y="154" width="243" height="196" as="geometry" />
        </mxCell>
        <mxCell id="wY0hnKDGdVHcxSXuLAbP-7" style="edgeStyle=orthogonalEdgeStyle;rounded=0;orthogonalLoop=1;jettySize=auto;html=1;startArrow=classic;startFill=1;" edge="1" parent="1" source="wY0hnKDGdVHcxSXuLAbP-4" target="wY0hnKDGdVHcxSXuLAbP-6">
          <mxGeometry relative="1" as="geometry" />
        </mxCell>
        <mxCell id="wY0hnKDGdVHcxSXuLAbP-18" style="edgeStyle=orthogonalEdgeStyle;rounded=0;orthogonalLoop=1;jettySize=auto;html=1;entryX=1;entryY=0.5;entryDx=0;entryDy=0;startArrow=classic;startFill=1;" edge="1" parent="1" source="wY0hnKDGdVHcxSXuLAbP-4" target="wY0hnKDGdVHcxSXuLAbP-17">
          <mxGeometry relative="1" as="geometry" />
        </mxCell>
        <mxCell id="wY0hnKDGdVHcxSXuLAbP-19" style="edgeStyle=orthogonalEdgeStyle;rounded=0;orthogonalLoop=1;jettySize=auto;html=1;entryX=1;entryY=0.75;entryDx=0;entryDy=0;exitX=0;exitY=0.75;exitDx=0;exitDy=0;startArrow=classic;startFill=1;" edge="1" parent="1" source="wY0hnKDGdVHcxSXuLAbP-4" target="wY0hnKDGdVHcxSXuLAbP-17">
          <mxGeometry relative="1" as="geometry" />
        </mxCell>
        <mxCell id="wY0hnKDGdVHcxSXuLAbP-20" style="edgeStyle=orthogonalEdgeStyle;rounded=0;orthogonalLoop=1;jettySize=auto;html=1;entryX=1;entryY=0.25;entryDx=0;entryDy=0;exitX=0;exitY=0.25;exitDx=0;exitDy=0;startArrow=classic;startFill=1;" edge="1" parent="1" source="wY0hnKDGdVHcxSXuLAbP-4" target="wY0hnKDGdVHcxSXuLAbP-17">
          <mxGeometry relative="1" as="geometry" />
        </mxCell>
        <mxCell id="wY0hnKDGdVHcxSXuLAbP-21" style="edgeStyle=orthogonalEdgeStyle;rounded=0;orthogonalLoop=1;jettySize=auto;html=1;entryX=0;entryY=0.75;entryDx=0;entryDy=0;exitX=1;exitY=0.75;exitDx=0;exitDy=0;startArrow=classic;startFill=1;" edge="1" parent="1" source="wY0hnKDGdVHcxSXuLAbP-4" target="wY0hnKDGdVHcxSXuLAbP-6">
          <mxGeometry relative="1" as="geometry" />
        </mxCell>
        <mxCell id="wY0hnKDGdVHcxSXuLAbP-22" style="edgeStyle=orthogonalEdgeStyle;rounded=0;orthogonalLoop=1;jettySize=auto;html=1;entryX=0;entryY=0.25;entryDx=0;entryDy=0;exitX=1;exitY=0.25;exitDx=0;exitDy=0;startArrow=classic;startFill=1;" edge="1" parent="1" source="wY0hnKDGdVHcxSXuLAbP-4" target="wY0hnKDGdVHcxSXuLAbP-6">
          <mxGeometry relative="1" as="geometry" />
        </mxCell>
        <mxCell id="wY0hnKDGdVHcxSXuLAbP-4" value="&lt;b&gt;PCS&lt;/b&gt;" style="rounded=0;whiteSpace=wrap;html=1;fillColor=#f5f5f5;fontColor=#333333;strokeColor=#666666;" vertex="1" parent="1">
          <mxGeometry x="47" y="170.5" width="46" height="148" as="geometry" />
        </mxCell>
        <mxCell id="wY0hnKDGdVHcxSXuLAbP-9" style="edgeStyle=orthogonalEdgeStyle;rounded=0;orthogonalLoop=1;jettySize=auto;html=1;startArrow=classic;startFill=1;" edge="1" parent="1" source="wY0hnKDGdVHcxSXuLAbP-6" target="wY0hnKDGdVHcxSXuLAbP-8">
          <mxGeometry relative="1" as="geometry" />
        </mxCell>
        <mxCell id="wY0hnKDGdVHcxSXuLAbP-6" value="&lt;b&gt;PMA&lt;/b&gt;" style="rounded=0;whiteSpace=wrap;html=1;fillColor=#f5f5f5;fontColor=#333333;strokeColor=#666666;" vertex="1" parent="1">
          <mxGeometry x="125.5" y="170.5" width="46" height="148" as="geometry" />
        </mxCell>
        <mxCell id="wY0hnKDGdVHcxSXuLAbP-12" style="edgeStyle=orthogonalEdgeStyle;rounded=0;orthogonalLoop=1;jettySize=auto;html=1;entryX=0;entryY=0.5;entryDx=0;entryDy=0;startArrow=classic;startFill=1;" edge="1" parent="1" source="wY0hnKDGdVHcxSXuLAbP-8" target="wY0hnKDGdVHcxSXuLAbP-11">
          <mxGeometry relative="1" as="geometry" />
        </mxCell>
        <mxCell id="wY0hnKDGdVHcxSXuLAbP-8" value="&lt;b&gt;PMD&lt;/b&gt;" style="rounded=0;whiteSpace=wrap;html=1;fillColor=#f5f5f5;fontColor=#333333;strokeColor=#666666;" vertex="1" parent="1">
          <mxGeometry x="202" y="170.5" width="46" height="148" as="geometry" />
        </mxCell>
        <mxCell id="wY0hnKDGdVHcxSXuLAbP-11" value="&lt;b&gt;Media&lt;/b&gt;" style="rounded=0;whiteSpace=wrap;html=1;shadow=1;" vertex="1" parent="1">
          <mxGeometry x="333" y="154" width="46" height="181" as="geometry" />
        </mxCell>
        <mxCell id="wY0hnKDGdVHcxSXuLAbP-13" value="&lt;b&gt;PHY&lt;/b&gt;" style="text;html=1;strokeColor=none;fillColor=none;align=center;verticalAlign=middle;whiteSpace=wrap;rounded=0;" vertex="1" parent="1">
          <mxGeometry x="218" y="323" width="60" height="30" as="geometry" />
        </mxCell>
        <mxCell id="wY0hnKDGdVHcxSXuLAbP-14" value="&lt;b&gt;MII&lt;/b&gt;" style="text;html=1;strokeColor=none;fillColor=none;align=center;verticalAlign=middle;whiteSpace=wrap;rounded=0;" vertex="1" parent="1">
          <mxGeometry x="-4" y="222" width="31" height="30" as="geometry" />
        </mxCell>
        <mxCell id="wY0hnKDGdVHcxSXuLAbP-15" value="&lt;b&gt;MDI&lt;/b&gt;" style="text;html=1;strokeColor=none;fillColor=none;align=center;verticalAlign=middle;whiteSpace=wrap;rounded=0;" vertex="1" parent="1">
          <mxGeometry x="285" y="222" width="31" height="30" as="geometry" />
        </mxCell>
        <mxCell id="wY0hnKDGdVHcxSXuLAbP-17" value="&lt;b&gt;MAC&lt;/b&gt;" style="rounded=0;whiteSpace=wrap;html=1;" vertex="1" parent="1">
          <mxGeometry x="-60" y="170.5" width="46" height="148" as="geometry" />
        </mxCell>
      </root>
    </mxGraphModel>
  </diagram>
</mxfile>
